<svg width="45" height="66" viewBox="0 0 45 66" fill="none" xmlns="http://www.w3.org/2000/svg">
<path d="M22.1294 0C19.2233 -3.46546e-08 16.3457 0.572394 13.6609 1.6845C10.976 2.79661 8.53646 4.42665 6.48155 6.48155C4.42665 8.53646 2.79661 10.976 1.6845 13.6609C0.572394 16.3457 -9.2374e-08 19.2233 0 22.1294C9.2374e-08 25.0355 0.572394 27.9131 1.6845 30.598C2.79661 33.2828 4.42665 35.7224 6.48155 37.7773C8.53646 39.8322 10.976 41.4622 13.6609 42.5743C16.3457 43.6864 19.2233 44.2588 22.1294 44.2588L22.1294 22.1294L22.1294 0Z" fill="#D2D8D9"/>
<path d="M22.1294 66C25.0355 66 27.9131 65.4276 30.5979 64.3155C33.2828 63.2034 35.7223 61.5734 37.7772 59.5184C39.8321 57.4635 41.4622 55.024 42.5743 52.3391C43.6864 49.6543 44.2588 46.7767 44.2588 43.8706C44.2588 40.9645 43.6864 38.0869 42.5743 35.402C41.4622 32.7172 39.8321 30.2776 37.7772 28.2227C35.7223 26.1678 33.2828 24.5378 30.5979 23.4257C27.9131 22.3136 25.0355 21.7412 22.1294 21.7412L22.1294 43.8706L22.1294 66Z" fill="#D2D8D9"/>
<circle cx="34.9412" cy="11.6471" r="9.31765" fill="#D2D8D9"/>
<circle cx="10.0941" cy="55.1294" r="9.31765" fill="#D2D8D9"/>
</svg>
